<svg width="13" height="24" viewBox="0 0 13 24" fill="none" xmlns="http://www.w3.org/2000/svg">
<path d="M10.0525 16.1523C10.0525 15.7861 9.98743 15.4484 9.85723 15.1392C9.73516 14.8218 9.53577 14.5288 9.25908 14.2603C8.98239 13.9917 8.62432 13.7435 8.18486 13.5156C7.74541 13.2796 7.22458 13.064 6.62236 12.8687C5.86553 12.6326 5.18193 12.36 4.57158 12.0508C3.96123 11.7415 3.4404 11.3713 3.00908 10.9399C2.56963 10.5168 2.2319 10.0285 1.9959 9.4751C1.7599 8.92171 1.64189 8.28288 1.64189 7.55859C1.64189 6.875 1.74362 6.25651 1.94707 5.70312C2.15866 5.14974 2.4557 4.66553 2.83818 4.25049C3.21253 3.84359 3.66826 3.514 4.20537 3.26172C4.75062 3.00944 5.35283 2.84261 6.01201 2.76123V0.0756836H7.83086V2.76123C8.42493 2.84261 8.96611 3.0013 9.45439 3.2373C9.94268 3.46517 10.3659 3.76221 10.7239 4.12842C11.1878 4.6167 11.5418 5.22298 11.7859 5.94727C12.0301 6.66341 12.1562 7.48942 12.1644 8.42529H9.91826C9.91826 7.88005 9.84909 7.37956 9.71074 6.92383C9.58053 6.45996 9.38929 6.0612 9.13701 5.72754C8.87659 5.40202 8.55921 5.14567 8.18486 4.9585C7.81051 4.77132 7.38327 4.67773 6.90312 4.67773C6.38229 4.67773 5.92656 4.75098 5.53594 4.89746C5.15345 5.04395 4.84014 5.25146 4.596 5.52002C4.36813 5.76416 4.19316 6.05713 4.07109 6.39893C3.95716 6.73258 3.9002 7.10693 3.9002 7.52197C3.9002 7.92887 3.9653 8.29102 4.09551 8.6084C4.22572 8.92578 4.43324 9.21468 4.71807 9.4751C4.99476 9.73551 5.35283 9.97965 5.79228 10.2075C6.23988 10.4272 6.77699 10.6429 7.40361 10.8545C8.16859 11.1068 8.85625 11.3875 9.4666 11.6968C10.077 12.006 10.5937 12.3682 11.0169 12.7832C11.4401 13.1982 11.7615 13.6784 11.9812 14.2236C12.2091 14.7689 12.323 15.4036 12.323 16.1279C12.323 16.8359 12.2091 17.4707 11.9812 18.0322C11.7615 18.5938 11.4482 19.0739 11.0413 19.4727C10.6344 19.8796 10.138 20.2051 9.55205 20.4492C8.97425 20.6934 8.33135 20.8521 7.62334 20.9253V23.269H5.80449V20.9375C5.16973 20.8724 4.55937 20.7259 3.97344 20.498C3.39564 20.2702 2.88294 19.9365 2.43535 19.4971C1.98776 19.0658 1.62969 18.5205 1.36113 17.8613C1.09258 17.2021 0.958301 16.4128 0.958301 15.4932H3.2166C3.2166 16.1768 3.31833 16.7464 3.52178 17.2021C3.72523 17.6497 3.98971 18.0078 4.31523 18.2764C4.63262 18.5449 4.99476 18.7362 5.40166 18.8501C5.80856 18.964 6.21953 19.021 6.63457 19.021C7.16354 19.021 7.63962 18.9559 8.06279 18.8257C8.48597 18.6955 8.84404 18.5042 9.13701 18.252C9.42998 18.0078 9.65378 17.7108 9.8084 17.3608C9.97116 17.0028 10.0525 16.5999 10.0525 16.1523Z" fill="black"/>
</svg>
