<svg width="25" height="19" viewBox="0 0 25 19" fill="none" xmlns="http://www.w3.org/2000/svg">
<path d="M13.7069 3.92412L13.7078 3.92303L16.0239 1.20805C16.0241 1.20786 16.0243 1.20766 16.0244 1.20746C16.0746 1.14926 16.1987 1.05123 16.3847 0.966632C16.5703 0.882264 16.7323 0.85 16.821 0.85H20.2099C20.3134 0.85 20.495 0.883651 20.7021 0.965972C20.9098 1.04853 21.06 1.14697 21.1288 1.21256C21.1289 1.21264 21.1289 1.21271 21.129 1.21279L23.7924 3.76628C23.86 3.83113 23.9592 3.97041 24.0418 4.16151C24.125 4.3538 24.1553 4.51492 24.1553 4.59692V9.76618C24.1553 9.82036 24.13 9.9489 24.0452 10.107C23.9612 10.2637 23.8641 10.3647 23.8071 10.4037L23.8063 10.4043L12.7375 18.017L12.7371 18.0173C12.7098 18.036 12.6275 18.0711 12.502 18.0711C12.3764 18.0711 12.2946 18.036 12.268 18.0177L12.267 18.017L1.19819 10.4043L1.19608 10.4029C1.13953 10.3642 1.04313 10.2642 0.959605 10.1079C0.875431 9.95048 0.849954 9.82152 0.849954 9.76618V4.59692C0.849954 4.5149 0.880284 4.35374 0.963446 4.16132C1.04591 3.9705 1.14483 3.83122 1.21232 3.76611C1.21246 3.76597 1.2126 3.76583 1.21274 3.7657L3.87545 1.21279C3.87558 1.21267 3.87571 1.21255 3.87584 1.21242C3.94478 1.14671 4.09487 1.04838 4.30221 0.96597C4.50904 0.883758 4.69086 0.85 4.79531 0.85H8.18416C8.27179 0.85 8.43365 0.882129 8.61946 0.966623C8.80588 1.05139 8.93004 1.14952 8.98001 1.20755C8.98014 1.2077 8.98027 1.20786 8.9804 1.20801L11.2965 3.92303L11.2968 3.92331C11.9441 4.68141 13.0598 4.68013 13.7069 3.92412Z" stroke="#242424" stroke-width="1.7"/>
</svg>
