<svg width="14" height="21" viewBox="0 0 14 21" fill="none" xmlns="http://www.w3.org/2000/svg">
<path d="M7.17629 10.5956C4.53078 10.5956 2.37838 8.44343 2.37838 5.79791C2.37838 3.15219 4.53078 1 7.17629 1C9.82181 1 11.974 3.15219 11.974 5.79791C11.974 8.44343 9.82181 10.5956 7.17629 10.5956ZM7.17629 1.61293C4.86875 1.61293 2.99131 3.49016 2.99131 5.79791C2.99131 8.10546 4.86854 9.98269 7.17629 9.98269C9.48384 9.98269 11.3611 8.10546 11.3611 5.79791C11.3611 3.49016 9.48384 1.61293 7.17629 1.61293Z" fill="black" stroke="#242424"/>
<path d="M13.1963 19.5927H1.30657C1.13717 19.5927 1 19.4556 1 19.2862V16.1767C1 13.5871 3.10695 11.48 5.69648 11.48H8.80599C11.3955 11.48 13.5027 13.5869 13.5027 16.1767V19.2862C13.5027 19.4556 13.3655 19.5927 13.1963 19.5927ZM1.61314 18.9798H12.8899V16.1767C12.8899 13.9249 11.0582 12.0929 8.80619 12.0929H5.69669C3.44492 12.0929 1.61314 13.9247 1.61314 16.1767V18.9798Z" fill="black" stroke="#242424"/>
</svg>
